<svg width="23" height="23" viewBox="0 0 23 23" fill="none" xmlns="http://www.w3.org/2000/svg">
<path d="M20.1351 14.5617C20.0846 14.38 20.1957 14.1275 20.3017 13.9458C20.3341 13.8917 20.3695 13.8395 20.4077 13.7893C21.3144 12.442 21.7996 10.8547 21.801 9.23068C21.8162 4.57614 17.8886 0.800003 13.0321 0.800003C8.79657 0.800003 5.26276 3.68259 4.43483 7.50921C4.311 8.07639 4.24835 8.65517 4.24805 9.23573C4.24805 13.8953 8.02418 17.7724 12.8807 17.7724C13.653 17.7724 14.693 17.5402 15.2635 17.3837C15.8339 17.2272 16.3993 17.0202 16.5457 16.9647C16.6958 16.9081 16.8548 16.879 17.0152 16.8789C17.1902 16.8782 17.3636 16.9125 17.5251 16.9798L20.3875 17.9945C20.4502 18.0211 20.5166 18.0381 20.5844 18.045C20.8059 18.045 20.9882 17.8627 20.9882 17.6412C20.9847 17.595 20.9763 17.5493 20.963 17.5049L20.1351 14.5617Z" stroke="#A8AD9C" stroke-width="1.6" stroke-miterlimit="10" stroke-linecap="round"/>
<path d="M1.73111 10.0889C0.383107 12.5106 0.508002 15.4955 2.05369 17.7962C2.17031 17.9723 2.23594 18.1087 2.21574 18.2C2.19555 18.2914 1.61348 21.3234 1.61348 21.3234C1.58501 21.4677 1.63756 21.6166 1.75029 21.7111C1.82425 21.77 1.91623 21.8018 2.01078 21.801C2.06132 21.8011 2.11135 21.7908 2.15769 21.7707L4.99534 20.6601C5.19056 20.5831 5.4086 20.5867 5.60114 20.6702C6.55729 21.0427 7.61441 21.276 8.67203 21.276C10.0912 21.2775 11.4857 20.9031 12.7132 20.1911" stroke="#A8AD9C" stroke-width="1.6" stroke-miterlimit="10" stroke-linecap="round"/>
</svg>
