<svg width="21" height="21" viewBox="0 0 21 21" fill="none" xmlns="http://www.w3.org/2000/svg">
<g clip-path="url(#clip0_728_706)">
<path d="M15.3125 5.6875H15.3213M6.125 1.75H14.875C17.2912 1.75 19.25 3.70875 19.25 6.125V14.875C19.25 17.2912 17.2912 19.25 14.875 19.25H6.125C3.70875 19.25 1.75 17.2912 1.75 14.875V6.125C1.75 3.70875 3.70875 1.75 6.125 1.75ZM14 9.94875C14.108 10.677 13.9836 11.4207 13.6445 12.0741C13.3055 12.7276 12.769 13.2575 12.1114 13.5885C11.4538 13.9194 10.7086 14.0346 9.98181 13.9177C9.25498 13.8007 8.58354 13.4576 8.06298 12.937C7.54243 12.4165 7.19927 11.745 7.08231 11.0182C6.96535 10.2914 7.08056 9.54616 7.41154 8.88858C7.74251 8.231 8.27241 7.69452 8.92586 7.35546C9.57931 7.0164 10.323 6.89201 11.0513 7C11.7941 7.11015 12.4817 7.45628 13.0127 7.98727C13.5437 8.51826 13.8899 9.20594 14 9.94875Z" stroke="#F7F4EF" stroke-width="1.6" stroke-linecap="round" stroke-linejoin="round"/>
</g>
<defs>
<clipPath id="clip0_728_706">
<rect width="21" height="21" fill="white"/>
</clipPath>
</defs>
</svg>
