<svg width="169" height="18" viewBox="0 0 169 18" fill="none" xmlns="http://www.w3.org/2000/svg">
<path d="M9.30755 0.000183105H0V0.62907C1.50933 0.62907 1.97052 2.72536 2.01244 3.7735V14.213C2.01244 16.3261 0.670814 17.1059 0 17.2317V17.8606H16.6026L17.2315 13.9615H16.6026C15.8983 16.5776 13.4582 17.2317 12.3262 17.2317H7.42088V3.7735C7.42088 1.55982 8.67866 0.754847 9.30755 0.62907V0.000183105Z" fill="#F7F4EF"/>
<path d="M26.9579 0.000183105H17.6504V0.62907C19.1597 0.62907 19.6209 2.72536 19.6628 3.7735C19.6628 6.3729 19.6291 9.96175 19.6291 12.0748C19.6291 13.9615 21.9771 17.8606 27.2095 17.8606C33.7499 17.8606 35.385 13.2068 35.385 12.0748V3.7735C35.385 2.38995 36.19 0.503292 37.3975 0.503292V0.000183105H32.7437V0.503292C33.4564 0.712921 34.6304 1.66044 34.6304 3.7735V11.3201C34.6304 13.4584 32.7689 15.4708 29.8508 15.4708C26.2033 15.4708 25.0713 13.081 25.0713 12.0748V3.7735C25.0713 1.55982 26.329 0.754847 26.9579 0.62907V0.000183105Z" fill="#F7F4EF"/>
<path d="M45.6582 0L55.4355 12.5215L55.4688 12.4521V3.77344C55.4687 1.66041 54.2948 0.712557 53.582 0.50293V0H58.2363V0.50293C57.0289 0.50293 56.2236 2.38989 56.2236 3.77344V17.8604H52.9531L43.2686 5.53418L42.0811 4.07324C42.0788 4.07478 42.0775 4.07771 42.0752 4.0791C41.5884 4.37763 41.5069 5.41772 41.5068 5.66211V14.0869C41.5068 16.1997 42.6808 17.1476 43.3936 17.3574V17.8604H38.7402V17.3574C39.9477 17.3574 40.7529 15.4704 40.7529 14.0869V3.64746C40.7529 2.84679 40.3442 2.04651 40.0479 1.57031L39.998 1.50977C39.7465 1.21629 39.1427 0.628906 38.7402 0.628906V0H45.6582Z" fill="#F7F4EF"/>
<path d="M156.487 10.3137L156.482 10.3312L160.638 0.000183105H160.639H168.06V0.629089C166.55 0.629089 166.089 2.72548 166.047 3.77362C166.047 6.37301 166.081 9.96234 166.081 12.0754C166.081 13.9619 166.081 16.8543 168.059 17.3576V17.9865H158.751V17.3576C159.38 17.2318 160.639 16.376 160.639 13.9611V1.7619L155.229 15.3449H152.966L147.684 4.27264V14.0871C147.684 16.1998 148.857 17.1478 149.569 17.3576V17.8605H144.916V17.3576C146.123 17.3576 146.929 15.4706 146.929 14.0871V3.64764C146.929 3.23266 146.871 2.80436 146.798 2.4162L146.425 1.63495C146.048 0.880637 145.545 0.629139 144.916 0.629089V0.000183105H151.708L156.487 10.3137Z" fill="#F7F4EF"/>
<path d="M71.8604 0.000183105L77.5205 13.4582C78.6273 16.1747 80.5384 17.1898 81.4189 17.3576V17.8605H71.4824V17.3576C72.388 17.3576 72.5312 16.0157 72.4893 15.3449L71.4824 12.8293H63.2764L62.8037 13.9621C62.7197 14.0465 62.5019 14.5163 62.3008 15.7228C62.0997 16.9297 62.8033 17.3155 63.1807 17.3576V17.9865H58.5273V17.3576C59.9359 17.1563 61.3777 15.2615 61.9229 14.3391C63.3903 10.8592 66.3759 3.72309 66.5771 3.01874C66.7412 2.44418 66.7461 1.71926 66.7207 1.26678C66.5612 0.889482 66.4713 0.629089 65.9482 0.629089V0.000183105H71.8604ZM63.5391 12.2004H71.2236L67.4111 2.92596L63.5391 12.2004Z" fill="#F7F4EF"/>
<path d="M100.455 3.8996H99.8262C99.1791 1.48467 96.9568 0.712941 95.9268 0.629089H90.6436V8.55292H92.5312C93.4118 8.46893 95.1719 7.94869 95.1719 6.54022H95.8008V11.3205H95.1719C95.1719 9.91203 93.4118 9.39179 92.5312 9.3078H90.6436V13.9611C90.6436 16.3755 91.9011 17.2315 92.5303 17.3576V17.9865H83.2227V17.3576C85.201 16.8545 85.2012 13.9621 85.2012 12.0754C85.2012 9.96233 85.2354 6.37301 85.2354 3.77362C85.1934 2.72548 84.732 0.629089 83.2227 0.629089V0.000183105H99.8262L100.455 3.8996Z" fill="#F7F4EF"/>
<path d="M110.643 0.000183105C115.922 0.000183105 120.202 3.99808 120.202 8.92987C120.202 13.8619 115.922 17.8605 110.643 17.8605C105.363 17.8603 101.084 13.8617 101.084 8.92987C101.084 3.99823 105.364 0.000429447 110.643 0.000183105ZM110.643 0.503113C108.281 0.503453 106.366 4.27691 106.366 8.93085C106.366 13.5847 108.281 17.3573 110.643 17.3576C113.004 17.3576 114.919 13.5849 114.919 8.93085C114.919 4.2767 113.004 0.503113 110.643 0.503113Z" fill="#F7F4EF"/>
<path d="M132.864 0.000183105C133.997 0.000304229 139.027 1.25815 139.027 4.90546C139.027 7.92411 136.511 9.30742 135.002 9.68475L134.795 9.73749L137.316 13.4582C138.952 15.848 141.772 17.3576 142.904 17.3576V18.0002H132.952V17.3576C133.857 17.3573 134.169 16.0999 133.792 15.5969L130.059 10.2111V9.55975H130.181C132.86 9.55975 134.499 8.35187 134.499 5.03143C134.499 1.71091 132.235 0.629089 131.354 0.629089H128.848V13.9611C128.848 16.376 130.105 17.2318 130.734 17.3576V17.9865H121.67V17.3576C123.648 16.8545 123.648 13.9621 123.648 12.0754C123.648 9.96236 123.683 6.37301 123.683 3.77362C123.641 2.72548 123.179 0.629089 121.67 0.629089V0.000183105H132.864Z" fill="#F7F4EF"/>
</svg>
