<svg width="21" height="21" viewBox="0 0 21 21" fill="none" xmlns="http://www.w3.org/2000/svg">
<path d="M8.58637 13.916L7.875 16.4062L7.16363 13.916C6.97976 13.2728 6.63504 12.687 6.16198 12.2139C5.68892 11.7408 5.10312 11.3961 4.45988 11.2123L1.96875 10.5L4.459 9.78863C5.10225 9.60476 5.68804 9.26004 6.1611 8.78698C6.63416 8.31392 6.97889 7.72812 7.16275 7.08488L7.875 4.59375L8.58637 7.084C8.77024 7.72725 9.11496 8.31304 9.58802 8.7861C10.0611 9.25916 10.6469 9.60389 11.2901 9.78775L13.7812 10.5L11.291 11.2114C10.6478 11.3952 10.062 11.74 9.5889 12.213C9.11584 12.6861 8.77111 13.2719 8.58725 13.9151L8.58637 13.916ZM15.9766 7.62563L15.75 8.53125L15.5234 7.62563C15.3937 7.10639 15.1253 6.63217 14.7469 6.25365C14.3685 5.87514 13.8944 5.60656 13.3753 5.47662L12.4688 5.25L13.3753 5.02338C13.8944 4.89344 14.3685 4.62486 14.7469 4.24635C15.1253 3.86783 15.3937 3.39361 15.5234 2.87438L15.75 1.96875L15.9766 2.87438C16.1064 3.39372 16.3749 3.86801 16.7535 4.24654C17.132 4.62507 17.6063 4.89358 18.1256 5.02338L19.0312 5.25L18.1256 5.47662C17.6063 5.60642 17.132 5.87493 16.7535 6.25346C16.3749 6.63199 16.1064 7.10628 15.9766 7.62563ZM14.7822 17.9961L14.4375 19.0312L14.0928 17.9961C13.9961 17.7062 13.8333 17.4427 13.6172 17.2266C13.401 17.0105 13.1376 16.8477 12.8476 16.751L11.8125 16.4062L12.8476 16.0615C13.1376 15.9648 13.401 15.802 13.6172 15.5859C13.8333 15.3698 13.9961 15.1063 14.0928 14.8164L14.4375 13.7812L14.7822 14.8164C14.8789 15.1063 15.0417 15.3698 15.2578 15.5859C15.474 15.802 15.7374 15.9648 16.0274 16.0615L17.0625 16.4062L16.0274 16.751C15.7374 16.8477 15.474 17.0105 15.2578 17.2266C15.0417 17.4427 14.8789 17.7062 14.7822 17.9961Z" stroke="#A8AD9C" stroke-width="1.6" stroke-linecap="round" stroke-linejoin="round"/>
</svg>
