<svg width="21" height="21" viewBox="0 0 21 21" fill="none" xmlns="http://www.w3.org/2000/svg">
<path fill-rule="evenodd" clip-rule="evenodd" d="M12.9598 1.31152V13.8317C12.9598 15.2851 12.3827 16.679 11.355 17.7062C10.3273 18.7339 8.93329 19.3115 7.47988 19.3115C6.02647 19.3115 4.63301 18.7339 3.60531 17.7062C2.57761 16.679 2 15.2851 2 13.8317C2 8.53638 2 1.31152 2 1.31152H12.9598Z" stroke="#A8AD9C" stroke-width="1.6" stroke-miterlimit="1.5" stroke-linecap="round" stroke-linejoin="round"/>
<path d="M20.0014 8.3518L12.9609 1.31152" stroke="#A8AD9C" stroke-width="1.6" stroke-miterlimit="1.5" stroke-linecap="round" stroke-linejoin="round"/>
<path d="M12.9595 8.35168H20V19.3112H7.47949" stroke="#A8AD9C" stroke-width="1.6" stroke-miterlimit="1.5" stroke-linecap="round" stroke-linejoin="round"/>
<path d="M7.47953 14.5142C7.85656 14.5142 8.16219 14.2086 8.16219 13.8316C8.16219 13.4546 7.85656 13.1489 7.47953 13.1489C7.10251 13.1489 6.79688 13.4546 6.79688 13.8316C6.79688 14.2086 7.10251 14.5142 7.47953 14.5142Z" stroke="#A8AD9C" stroke-width="1.6" stroke-miterlimit="1.5" stroke-linecap="round" stroke-linejoin="round"/>
</svg>
