<svg width="21" height="21" viewBox="0 0 21 21" fill="none" xmlns="http://www.w3.org/2000/svg">
<path d="M10.032 13.0577L14.7397 17.7654C15.1434 18.1562 15.6846 18.3727 16.2465 18.3682C16.8084 18.3636 17.346 18.1384 17.7434 17.741C18.1407 17.3437 18.366 16.8061 18.3705 16.2442C18.3751 15.6823 18.1586 15.1411 17.7678 14.7373L13.0222 9.99172M10.032 13.0577L12.0475 10.6111C12.3035 10.301 12.6451 10.1056 13.023 9.99252C13.4671 9.8601 13.9621 9.84072 14.4304 9.87948C15.0617 9.93369 15.6963 9.82187 16.271 9.55512C16.8458 9.28837 17.3408 8.87596 17.7069 8.35882C18.0731 7.84167 18.2976 7.23778 18.3583 6.60705C18.419 5.97632 18.3137 5.34069 18.0528 4.76323L15.4075 7.40937C14.9649 7.30703 14.56 7.08247 14.2387 6.76126C13.9175 6.44005 13.693 6.0351 13.5906 5.59252L16.236 2.94719C15.6585 2.68634 15.0229 2.58103 14.3921 2.6417C13.7614 2.70238 13.1575 2.92693 12.6404 3.29307C12.1232 3.65922 11.7108 4.15423 11.4441 4.72899C11.1773 5.30374 11.0655 5.93826 11.1197 6.56958C11.1932 7.43844 11.0624 8.39773 10.3897 8.95167L10.3074 9.02031M10.032 13.0577L6.27317 17.6225C6.091 17.8445 5.86434 18.026 5.6078 18.1552C5.35126 18.2844 5.07051 18.3584 4.78362 18.3725C4.49674 18.3866 4.21008 18.3405 3.94209 18.2372C3.6741 18.1338 3.43072 17.9755 3.22762 17.7724C3.02452 17.5693 2.86619 17.3259 2.76283 17.0579C2.65947 16.7899 2.61337 16.5033 2.62749 16.2164C2.64161 15.9295 2.71564 15.6487 2.84482 15.3922C2.97399 15.1357 3.15545 14.909 3.37752 14.7268L8.89832 10.1807L5.58196 6.86431H4.44421L2.62736 3.83623L3.8386 2.625L6.86668 4.44185V5.5796L10.3066 9.0195L8.89751 10.1799M15.6481 15.6457L13.5285 13.5261M4.74056 16.2514H4.74702V16.2578H4.74056V16.2514Z" stroke="#A8AD9C" stroke-width="1.6" stroke-linecap="round" stroke-linejoin="round"/>
</svg>
