<svg width="24" height="21" viewBox="0 0 24 21" fill="none" xmlns="http://www.w3.org/2000/svg">
<path fill-rule="evenodd" clip-rule="evenodd" d="M11.5581 17.4059C9.04429 15.9174 7.35742 13.1778 7.35742 10.0472C7.35742 6.91659 9.04429 4.17694 11.5581 2.68848C14.0719 4.17694 15.7587 6.91659 15.7587 10.0472C15.7587 13.1778 14.0719 15.9174 11.5581 17.4059Z" stroke="#A8AD9C" stroke-width="1.6" stroke-miterlimit="1.5" stroke-linecap="round" stroke-linejoin="round"/>
<path d="M11.2601 17.401C11.012 17.4648 10.7621 17.5165 10.5104 17.557C7.94597 17.9696 5.22623 17.1881 3.25096 15.2129C1.08187 13.0438 0.352424 9.97679 1.06284 7.20377C3.30524 6.62926 5.41024 7.05283 7.40646 8.36172" stroke="#A8AD9C" stroke-width="1.6" stroke-miterlimit="1.5" stroke-linecap="round" stroke-linejoin="round"/>
<path d="M4.42299 6.94114C4.73168 5.94335 5.22508 5.00713 5.87946 4.18595C6.89159 4.36072 7.86225 4.72009 8.74118 5.24157" stroke="#A8AD9C" stroke-width="1.6" stroke-miterlimit="1.5" stroke-linecap="round" stroke-linejoin="round"/>
<path d="M11.7712 17.401C12.0193 17.4648 12.2691 17.5165 12.5208 17.557C15.0853 17.9696 17.805 17.1881 19.7803 15.2129C21.9494 13.0438 22.6788 9.97679 21.9684 7.20377C19.726 6.62926 17.621 7.05283 15.6248 8.36172" stroke="#A8AD9C" stroke-width="1.6" stroke-miterlimit="1.5" stroke-linecap="round" stroke-linejoin="round"/>
<path d="M18.7606 6.94114C18.4519 5.94335 17.9585 5.00713 17.3041 4.18595C16.292 4.36072 15.3213 4.72009 14.4424 5.24157" stroke="#A8AD9C" stroke-width="1.6" stroke-miterlimit="1.5" stroke-linecap="round" stroke-linejoin="round"/>
</svg>
